<?xml version="1.0" encoding="UTF-8" standalone="no"?>
<!DOCTYPE svg PUBLIC "-//W3C//DTD SVG 1.1//EN" "http://www.w3.org/Graphics/SVG/1.1/DTD/svg11.dtd">
<svg width="100%" height="100%" viewBox="0 0 158 117" version="1.1" xmlns="http://www.w3.org/2000/svg" xmlns:xlink="http://www.w3.org/1999/xlink" xml:space="preserve" xmlns:serif="http://www.serif.com/" style="fill-rule:evenodd;clip-rule:evenodd;stroke-linecap:round;stroke-linejoin:round;stroke-miterlimit:1.5;">
    <g transform="matrix(1,0,0,1,-966,-680)">
        <g id="aries">
            <path d="M975.63,732.783C971.111,722.527 968.105,706.946 973.308,696.446C980.773,681.383 1004.75,680.863 1015.53,692.02C1024.75,701.561 1026.91,714.003 1029.97,726.343C1035.42,748.311 1038.58,770.563 1043.67,792.567" style="fill:none;stroke:black;stroke-width:7.5px;"/>
            <g transform="matrix(-1.03432,0,0,1,2123.17,0)">
                <path d="M975.63,732.783C971.111,722.527 968.105,706.946 973.308,696.446C980.773,681.383 1004.75,680.863 1015.53,692.02C1024.75,701.561 1026.91,714.003 1029.97,726.343C1035.42,748.311 1038.58,770.563 1043.67,792.567" style="fill:none;stroke:black;stroke-width:7.37px;"/>
            </g>
        </g>
    </g>
</svg>
