<?xml version="1.0" encoding="UTF-8" standalone="no"?>
<!DOCTYPE svg PUBLIC "-//W3C//DTD SVG 1.1//EN" "http://www.w3.org/Graphics/SVG/1.1/DTD/svg11.dtd">
<svg width="100%" height="100%" viewBox="0 0 129 118" version="1.1" xmlns="http://www.w3.org/2000/svg" xmlns:xlink="http://www.w3.org/1999/xlink" xml:space="preserve" xmlns:serif="http://www.serif.com/" style="fill-rule:evenodd;clip-rule:evenodd;stroke-linecap:round;stroke-linejoin:round;stroke-miterlimit:1.5;">
    <g transform="matrix(1,0,0,1,-1212,-443)">
        <g id="cancer">
            <path d="M1335.52,475.351C1335.52,475.351 1317.35,447.443 1277.08,447.198C1236.8,446.953 1225.99,468.844 1225.99,468.844C1225.99,468.844 1216.76,476.362 1216.61,489.827C1216.46,503.292 1221.74,512.095 1236.14,512.681C1250.55,513.268 1259.15,504.363 1258.87,490.792C1258.33,465.116 1225.99,468.844 1225.99,468.844" style="fill:none;stroke:black;stroke-width:7.5px;"/>
            <g transform="matrix(-1,1.22465e-16,-1.22465e-16,-1,2553.13,1003.9)">
                <path d="M1335.52,475.351C1335.52,475.351 1317.35,447.443 1277.08,447.198C1236.8,446.953 1225.99,468.844 1225.99,468.844C1225.99,468.844 1216.76,476.362 1216.61,489.827C1216.46,503.292 1221.74,512.095 1236.14,512.681C1250.55,513.268 1259.15,504.363 1258.87,490.792C1258.33,465.116 1225.99,468.844 1225.99,468.844" style="fill:none;stroke:black;stroke-width:7.5px;"/>
            </g>
        </g>
    </g>
</svg>
