<?xml version="1.0" encoding="UTF-8" standalone="no"?>
<!DOCTYPE svg PUBLIC "-//W3C//DTD SVG 1.1//EN" "http://www.w3.org/Graphics/SVG/1.1/DTD/svg11.dtd">
<svg width="100%" height="100%" viewBox="0 0 140 126" version="1.1" xmlns="http://www.w3.org/2000/svg" xmlns:xlink="http://www.w3.org/1999/xlink" xml:space="preserve" xmlns:serif="http://www.serif.com/" style="fill-rule:evenodd;clip-rule:evenodd;stroke-linecap:round;stroke-linejoin:round;stroke-miterlimit:1.5;">
    <g transform="matrix(1,0,0,1,-750,-196)">
        <path id="capricorn" d="M754.073,208.482C757.804,206.746 761.29,204.912 765.352,204.034C768.205,203.417 772.259,202.532 775.177,203.363C780.155,204.781 782.199,209.817 783.975,214.168C788.577,225.444 792.586,278.45 792.749,282.644C792.784,283.524 800.341,238.03 801.769,233.529C802.804,230.27 812.135,191.894 830.51,201.571C836.484,204.717 838.838,213.311 840.175,219.406C842.555,230.256 841.738,241.873 841.757,252.893C841.767,259.33 841.644,267.14 845.128,272.825C850.08,280.905 858.693,289.43 867.975,289.681C871.142,289.766 879.113,286.181 881.618,283.836C888.418,277.469 885.917,261.044 875.303,257.979C857.168,252.743 848.255,268.573 840.749,281.881C836.265,289.83 831.296,297.417 825.884,304.759C822.715,309.057 820.008,313.516 814.88,315.714C808.208,318.573 801.018,318.006 793.959,317.379" style="fill:none;stroke:black;stroke-width:7.5px;"/>
    </g>
</svg>
