<?xml version="1.0" encoding="UTF-8" standalone="no"?>
<!DOCTYPE svg PUBLIC "-//W3C//DTD SVG 1.1//EN" "http://www.w3.org/Graphics/SVG/1.1/DTD/svg11.dtd">
<svg width="100%" height="100%" viewBox="0 0 98 154" version="1.1" xmlns="http://www.w3.org/2000/svg" xmlns:xlink="http://www.w3.org/1999/xlink" xml:space="preserve" xmlns:serif="http://www.serif.com/" style="fill-rule:evenodd;clip-rule:evenodd;stroke-linecap:round;stroke-linejoin:round;stroke-miterlimit:1.5;">
    <g transform="matrix(1,0,0,1,-997,-427)">
        <path id="leo" d="M1039.77,512.652C1028.14,500.958 1010.8,498.068 1002.39,515.68C996.436,528.134 1010.67,549.156 1027.01,542.291C1029.93,541.065 1032.61,539.39 1034.84,537.135C1041.2,530.714 1041.36,521.002 1039.77,512.652C1036.06,493.101 1022.52,477.062 1020.65,456.868C1019.26,441.851 1029.92,430.316 1045.72,430.99C1050.87,431.21 1080.34,435.793 1072.66,468.451C1065.43,499.177 1049.32,529.3 1050.88,561.106C1051.42,572.149 1065.8,577.887 1075.33,575.85C1082.91,574.228 1088.43,568.229 1090.89,561.102" style="fill:none;stroke:black;stroke-width:7.5px;"/>
    </g>
</svg>
