<?xml version="1.0" encoding="UTF-8" standalone="no"?>
<!DOCTYPE svg PUBLIC "-//W3C//DTD SVG 1.1//EN" "http://www.w3.org/Graphics/SVG/1.1/DTD/svg11.dtd">
<svg width="100%" height="100%" viewBox="0 0 176 127" version="1.1" xmlns="http://www.w3.org/2000/svg" xmlns:xlink="http://www.w3.org/1999/xlink" xml:space="preserve" xmlns:serif="http://www.serif.com/" style="fill-rule:evenodd;clip-rule:evenodd;stroke-linecap:round;stroke-linejoin:round;stroke-miterlimit:1.5;">
    <g transform="matrix(1,0,0,1,-1188,-195)">
        <g id="scorpio">
            <path d="M1191.76,206.002C1194.5,204.686 1197.37,203.762 1200.26,202.827C1202.05,202.247 1203.9,201.75 1205.79,201.738C1219.05,201.655 1220.07,218.34 1221.63,228.038C1224.36,245.002 1226.37,262.453 1227.34,279.576C1227.36,279.912 1227.4,278.905 1227.43,278.57C1227.51,277.776 1227.6,276.984 1227.69,276.191C1227.93,274.093 1228.24,272.003 1228.64,269.932C1229.87,263.658 1231.17,257.374 1232.1,251.048C1232.67,247.194 1233.2,243.334 1233.78,239.481C1234.25,236.405 1234.73,233.371 1235.46,230.341C1238.91,215.947 1249.23,191.27 1268.42,201.244C1273.56,203.917 1274.81,210.403 1275.42,215.648C1276.93,228.72 1274.21,243.285 1273.04,256.317C1272.58,261.445 1272.05,266.565 1271.86,271.712C1271.8,273.425 1271.77,275.137 1271.76,276.851C1271.75,277.715 1271.28,280.17 1271.74,279.444C1272.57,278.167 1272.68,275.753 1273.04,274.309C1274,270.523 1275.12,266.778 1276.15,263.013C1277.38,258.531 1278.28,253.912 1279.03,249.326C1279.63,245.68 1283.86,229.619 1284.61,226C1286.21,218.35 1292.29,206.037 1295.3,203.871C1299.19,201.063 1305.35,198.835 1310.17,200.197C1324.27,204.173 1321.28,226.749 1320.59,237.78C1319.7,252.153 1319.39,267.407 1322.02,281.655C1322.93,286.58 1323.77,292.768 1327.63,296.355C1336.42,304.523 1348.82,303.14 1359.68,301.684" style="fill:none;stroke:black;stroke-width:7.5px;"/>
            <path d="M1345.71,287.231L1359.93,301.664L1346.24,318.063" style="fill:none;stroke:black;stroke-width:7.5px;"/>
        </g>
    </g>
</svg>
