<?xml version="1.0" encoding="UTF-8" standalone="no"?>
<!DOCTYPE svg PUBLIC "-//W3C//DTD SVG 1.1//EN" "http://www.w3.org/Graphics/SVG/1.1/DTD/svg11.dtd">
<svg width="100%" height="100%" viewBox="0 0 168 126" version="1.1" xmlns="http://www.w3.org/2000/svg" xmlns:xlink="http://www.w3.org/1999/xlink" xml:space="preserve" xmlns:serif="http://www.serif.com/" style="fill-rule:evenodd;clip-rule:evenodd;stroke-linecap:round;stroke-linejoin:round;stroke-miterlimit:1.5;">
    <g transform="matrix(1,0,0,1,-735,-442)">
        <g id="virgo">
            <path d="M739.524,455.473C742.128,453.988 744.748,452.732 747.664,451.967C749.838,451.396 752.136,450.857 754.394,450.855C766.764,450.841 767.628,465.077 768.769,474.264C769.756,482.203 770.901,490.108 771.163,498.114C771.392,505.135 771.537,512.123 772.504,519.093C772.826,521.41 773.207,523.721 773.57,526.032C773.689,526.792 773.794,527.555 773.903,528.316C773.956,528.691 773.961,529.806 774.063,529.441C777.297,517.821 783.855,469.76 790.209,460.195C794.388,453.905 803.563,442.765 812.43,446.71C819.16,449.705 823.04,457.346 823.917,464.303C825.503,476.885 820.965,513.48 820.815,519.148C820.765,521.025 820.733,522.902 820.711,524.78C820.703,525.426 820.696,526.072 820.69,526.718C820.686,527.071 820.607,528.122 820.68,527.777C825.462,505.194 833.938,467.989 842.184,455.065C845.369,450.074 856.333,445.893 861.571,448.544C874.146,454.909 872.644,471.511 872.434,483.292C872.195,496.791 871.978,510.363 872.769,523.845C873.205,531.283 873.413,539.703 876.238,546.708C880.081,556.234 889.503,561.951 899.139,564.233" style="fill:none;stroke:black;stroke-width:7.5px;"/>
            <path d="M872.143,492.888C874.103,489.83 881.042,475.91 890.145,480.968C891.298,481.609 894.566,484.761 895.022,485.994C895.674,487.759 896.006,489.61 896.211,491.474C897.179,500.279 894.259,508.422 890.658,516.323C883.891,531.171 872.266,544.051 857.476,551.247C852.487,553.673 847.168,554.599 841.95,556.264" style="fill:none;stroke:black;stroke-width:7.5px;"/>
        </g>
    </g>
</svg>
